<!-- Locked app icon (cream rounded container + pour-over glyph).
     Regenerated by `pnpm export:app-icon` via a headless browser render:
     logo192.png (192), logo512.png (512), logo1024.png (1024). -->
<svg xmlns="http://www.w3.org/2000/svg" width="512" height="512" viewBox="0 0 512 512" role="img" aria-label="Coffee Companion">
  <rect width="512" height="512" rx="96" fill="#f7f0e8"/>
  <g fill="none" stroke="#c2703f" stroke-width="24" stroke-linecap="round" stroke-linejoin="round">
    <path d="M146 98 L256 272 L366 98"/>
    <path d="M198 134 Q227 118 256 134 T314 134"/>
    <path d="M258 168 Q276 198 250 226"/>
    <path d="M214 368 L214 388 A42 42 0 0 1 298 388 L298 368"/>
    <path d="M312 380 Q340 404 312 428"/>
    <path d="M354 298 L376 318 L398 298"/>
  </g>
  <path fill="#c2703f" d="M256 300 C256 300 230 324 256 344 C282 324 256 300 256 300 Z"/>
</svg>
